<mxfile host="app.diagrams.net" modified="2022-10-19T17:48:06.452Z" agent="5.0 (Windows NT 10.0; Win64; x64) AppleWebKit/537.36 (KHTML, like Gecko) Chrome/106.0.0.0 Safari/537.36 Edg/106.0.1370.47" etag="oyzEGH-nV6O-pl_geUwn" version="20.4.1" type="github">
  <diagram name="Page-1" id="e7e014a7-5840-1c2e-5031-d8a46d1fe8dd">
    <mxGraphModel dx="1730" dy="952" grid="1" gridSize="10" guides="1" tooltips="1" connect="1" arrows="1" fold="1" page="1" pageScale="1" pageWidth="1169" pageHeight="826" background="none" math="0" shadow="0">
      <root>
        <mxCell id="0" />
        <mxCell id="1" parent="0" />
        <mxCell id="Q_8kS4ZeKty7kXpfNYcQ-3" value="authorization" style="shape=umlFrame;whiteSpace=wrap;html=1;width=80;height=30;" vertex="1" parent="1">
          <mxGeometry x="190" y="160" width="300" height="330" as="geometry" />
        </mxCell>
        <mxCell id="Q_8kS4ZeKty7kXpfNYcQ-4" value="" style="ellipse;html=1;shape=startState;fillColor=#000000;strokeColor=#ff0000;" vertex="1" parent="1">
          <mxGeometry x="325" y="200" width="30" height="30" as="geometry" />
        </mxCell>
        <mxCell id="Q_8kS4ZeKty7kXpfNYcQ-5" value="" style="edgeStyle=orthogonalEdgeStyle;html=1;verticalAlign=bottom;endArrow=open;endSize=8;strokeColor=#ff0000;rounded=0;" edge="1" source="Q_8kS4ZeKty7kXpfNYcQ-4" parent="1">
          <mxGeometry relative="1" as="geometry">
            <mxPoint x="340" y="290" as="targetPoint" />
          </mxGeometry>
        </mxCell>
        <mxCell id="Q_8kS4ZeKty7kXpfNYcQ-6" value="" style="ellipse;html=1;shape=endState;fillColor=#000000;strokeColor=#ff0000;" vertex="1" parent="1">
          <mxGeometry x="325" y="420" width="30" height="30" as="geometry" />
        </mxCell>
        <mxCell id="Q_8kS4ZeKty7kXpfNYcQ-7" value="frame" style="shape=umlFrame;whiteSpace=wrap;html=1;" vertex="1" parent="1">
          <mxGeometry x="630" y="160" width="300" height="320" as="geometry" />
        </mxCell>
      </root>
    </mxGraphModel>
  </diagram>
</mxfile>
